<svg xmlns="http://www.w3.org/2000/svg" width="48" height="48"><defs><filter id="a"><feFlood flood-color="#FFF" flood-opacity="1" result="floodOut"/><feComposite operator="atop" in="floodOut" in2="SourceGraphic" result="compOut"/><feBlend in="compOut" in2="SourceGraphic"/></filter></defs><g filter="url(#a)"><path fill-rule="evenodd" fill="#3C4042" d="M47.727 47.725a.896.896 0 01-1.269 0l-8.957-8.957c.439-.407.862-.83 1.269-1.269l8.957 8.957c.35.351.35.92 0 1.269zm-26.08-5.378C10.211 42.347.941 33.078.941 21.643.941 10.206 10.211.936 21.647.936c11.435 0 20.706 9.27 20.706 20.707 0 11.435-9.271 20.704-20.706 20.704zm0-39.529c-10.396 0-18.824 8.428-18.824 18.824s8.428 18.823 18.824 18.823S40.47 32.038 40.47 21.642 32.043 2.818 21.647 2.818z"/></g></svg>