<svg xmlns="http://www.w3.org/2000/svg" width="29" height="29"><defs><filter id="a"><feFlood flood-color="#FFF" flood-opacity="1" result="floodOut"/><feComposite operator="atop" in="floodOut" in2="SourceGraphic" result="compOut"/><feBlend in="compOut" in2="SourceGraphic"/></filter></defs><g filter="url(#a)"><path fill-rule="evenodd" fill="#3C4042" d="M28.836 28.835a.538.538 0 01-.761 0L22.7 23.461c.264-.244.517-.498.761-.761l5.375 5.374c.21.211.21.551 0 .761zm-15.648-3.226C6.327 25.609.764 20.046.764 13.186.764 6.323 6.327.762 13.188.762s12.423 5.561 12.423 12.424c0 6.86-5.562 12.423-12.423 12.423zm0-23.718c-6.238 0-11.294 5.057-11.294 11.294 0 6.238 5.056 11.294 11.294 11.294 6.237 0 11.294-5.056 11.294-11.294 0-6.237-5.057-11.294-11.294-11.294z"/></g></svg>