<svg xmlns="http://www.w3.org/2000/svg" width="12" height="12"><defs><filter id="a" x="1529" y="6006" width="12" height="12" filterUnits="userSpaceOnUse"><feFlood result="flood" flood-color="#1e2633"/><feComposite result="composite" operator="in" in2="SourceGraphic"/><feBlend result="blend" in2="SourceGraphic"/></filter></defs><path d="M1535.9 6013.64a3.141 3.141 0 00-.42-.48 5.724 5.724 0 00-.46-.4c-.15-.12-.29-.23-.42-.34a1.659 1.659 0 01-.31-.35.651.651 0 01-.12-.37.8.8 0 01.17-.48 2.7 2.7 0 01.4-.44c.16-.15.32-.3.48-.47a2.243 2.243 0 00.4-.67 2.5 2.5 0 00.17-.94 2.737 2.737 0 00-.29-1.22 2.071 2.071 0 00-.79-.91h.97l.98-.57h-3.15a6.876 6.876 0 00-1.35.14 3.075 3.075 0 00-1.69 1.02 2.687 2.687 0 00-.68 1.81 2.3 2.3 0 00.76 1.77 2.615 2.615 0 001.85.71 4.9 4.9 0 00.5-.03l-.05.15a.912.912 0 01-.06.16 1.063 1.063 0 00-.03.14.881.881 0 00-.02.17 1.9 1.9 0 00.46 1.07 7.885 7.885 0 00-1.08.1 7.453 7.453 0 00-1.12.26 3.475 3.475 0 00-1.04.51 2.1 2.1 0 00-.69.8 2.165 2.165 0 00-.27.97 1.769 1.769 0 00.22.88 2.011 2.011 0 00.55.64 4.118 4.118 0 00.78.42 5.027 5.027 0 00.88.24 5.1 5.1 0 00.87.07 4.529 4.529 0 003.02-.94 2.63 2.63 0 001.01-2.04 2.755 2.755 0 00-.11-.77 2.2 2.2 0 00-.32-.61zm-2.78-2.62a1.331 1.331 0 01-.69-.19 1.792 1.792 0 01-.57-.49 3.394 3.394 0 01-.4-.67 3.714 3.714 0 01-.26-.75 3.677 3.677 0 01-.08-.71 1.9 1.9 0 01.37-1.19 1.191 1.191 0 011.04-.5 1.437 1.437 0 01.86.29 2 2 0 01.6.75 4.824 4.824 0 01.34.94 3.943 3.943 0 01.12.92 1.922 1.922 0 01-.31 1.16 1.176 1.176 0 01-1.02.44zm2 5.41a1.312 1.312 0 01-.54.53 2.652 2.652 0 01-.72.29 3.591 3.591 0 01-.81.09 4.061 4.061 0 01-.92-.11 3.539 3.539 0 01-.87-.33 1.79 1.79 0 01-.67-.61 1.536 1.536 0 01-.26-.87 1.5 1.5 0 01.2-.77 1.449 1.449 0 01.5-.54 2.682 2.682 0 01.7-.34 6.2 6.2 0 01.78-.18 6.494 6.494 0 01.77-.05 3.063 3.063 0 01.36.02c.03.02.1.07.22.15a2.652 2.652 0 00.23.16c.05.03.12.09.23.17s.18.14.23.18.11.11.2.19a1.629 1.629 0 01.19.21c.04.06.09.13.15.22a1.2 1.2 0 01.13.25c.02.08.04.17.06.26a.925.925 0 01.04.29 1.544 1.544 0 01-.2.79zm4.03-8.58V6006h-.92v1.85h-1.85v.92h1.85v1.84h.92v-1.84h1.85v-.92h-1.85z" transform="translate(-1529 -6006)" fill-rule="evenodd" filter="url(#a)"/></svg>