<svg xmlns="http://www.w3.org/2000/svg" width="15" height="12"><defs><filter id="a" x="1484" y="6006" width="15" height="12" filterUnits="userSpaceOnUse"><feFlood result="flood" flood-color="#1e2633"/><feComposite result="composite" operator="in" in2="SourceGraphic"/><feBlend result="blend" in2="SourceGraphic"/></filter></defs><path d="M1499 6007.43a6.1 6.1 0 01-1.77.46 2.911 2.911 0 001.35-1.66 6.217 6.217 0 01-1.95.73 3.1 3.1 0 00-4.42-.07 2.886 2.886 0 00-.9 2.14 2.815 2.815 0 00.08.69 8.734 8.734 0 01-6.34-3.17 2.936 2.936 0 00-.42 1.53 2.861 2.861 0 00.37 1.44 2.969 2.969 0 001 1.08 3.044 3.044 0 01-1.39-.38v.04a2.861 2.861 0 00.7 1.92 3.006 3.006 0 001.76 1.05 3.1 3.1 0 01-.81.1 4.263 4.263 0 01-.58-.05 2.966 2.966 0 001.09 1.5 3.011 3.011 0 001.79.6 6.05 6.05 0 01-3.82 1.3c-.27 0-.52-.02-.74-.04a8.687 8.687 0 004.72 1.36 9.073 9.073 0 003.07-.51 7.892 7.892 0 002.46-1.37 9.172 9.172 0 001.76-1.97 8.838 8.838 0 001.1-2.33 8.532 8.532 0 00.36-2.44c0-.17 0-.3-.01-.39a6.34 6.34 0 001.54-1.56z" transform="translate(-1484 -6006)" fill-rule="evenodd" filter="url(#a)"/></svg>