<svg xmlns="http://www.w3.org/2000/svg" width="12" height="12"><defs><filter id="a" x="1219" y="888" width="12" height="12" filterUnits="userSpaceOnUse"><feFlood result="flood" flood-color="#dcdee0"/><feComposite result="composite" operator="in" in2="SourceGraphic"/><feBlend result="blend" in2="SourceGraphic"/></filter></defs><path data-name="5" d="M1231 892.65a.378.378 0 00-.4-.348l-3.62-.552-1.63-3.439a.353.353 0 00-.7 0l-1.63 3.439-3.62.552a.378.378 0 00-.4.348.587.587 0 00.18.363l2.63 2.677-.63 3.78c0 .07-.01.121-.01.151a.464.464 0 00.08.268.244.244 0 00.22.11.566.566 0 00.29-.091l3.24-1.784 3.24 1.784a.566.566 0 00.29.091.256.256 0 00.22-.11.46.46 0 00.07-.268.627.627 0 00-.01-.151l-.62-3.78 2.62-2.677a.538.538 0 00.19-.363z" transform="translate(-1219 -888)" fill-rule="evenodd" filter="url(#a)"/></svg>