<svg xmlns="http://www.w3.org/2000/svg" width="20" height="21"><defs><filter id="a"><feFlood flood-color="#1E2633" flood-opacity="1" result="floodOut"/><feComposite operator="atop" in="floodOut" in2="SourceGraphic" result="compOut"/><feBlend in="compOut" in2="SourceGraphic"/></filter></defs><g filter="url(#a)"><path fill-rule="evenodd" d="M19.544 3.445A1.496 1.496 0 0018.462 3h-1.538V1.875a1.78 1.78 0 00-.565-1.324A1.873 1.873 0 0015.001 0h-.77c-.529 0-.981.183-1.358.551a1.78 1.78 0 00-.565 1.324V3H7.692V1.875A1.78 1.78 0 007.127.551 1.871 1.871 0 005.769 0H5c-.529 0-.982.183-1.359.551a1.784 1.784 0 00-.565 1.324V3H1.538c-.417 0-.777.148-1.082.445A1.427 1.427 0 00-.001 4.5v15c0 .406.153.758.457 1.055.305.297.665.445 1.082.445h16.924c.417 0 .778-.148 1.082-.445.304-.297.457-.649.457-1.055v-15c0-.407-.153-.758-.457-1.055zM5 19.5H1.538v-3.375H5V19.5zm0-4.125H1.538v-3.75H5v3.75zm0-4.5H1.538V7.5H5v3.375zm-.271-5.362a.354.354 0 01-.114-.263V1.875c0-.102.038-.19.114-.264A.378.378 0 015 1.5h.769c.104 0 .194.037.27.111a.353.353 0 01.115.264V5.25a.355.355 0 01-.115.263.371.371 0 01-.27.112H5a.375.375 0 01-.271-.112zM9.615 19.5H5.769v-3.375h3.846V19.5zm0-4.125H5.769v-3.75h3.846v3.75zm0-4.5H5.769V7.5h3.846v3.375zm4.616 8.625h-3.846v-3.375h3.846V19.5zm0-4.125h-3.846v-3.75h3.846v3.75zm0-4.5h-3.846V7.5h3.846v3.375zm-.27-5.362a.354.354 0 01-.114-.263V1.875c0-.102.038-.19.114-.264a.374.374 0 01.27-.111H15c.105 0 .195.037.271.111a.356.356 0 01.114.264V5.25a.354.354 0 01-.114.263.372.372 0 01-.271.112h-.769a.371.371 0 01-.27-.112zM18.462 19.5H15v-3.375h3.462V19.5zm0-4.125H15v-3.75h3.462v3.75zm0-4.5H15V7.5h3.462v3.375z"/></g></svg>