<svg xmlns="http://www.w3.org/2000/svg" width="20" height="20"><defs><filter id="a"><feFlood flood-color="#1E2633" flood-opacity="1" result="floodOut"/><feComposite operator="atop" in="floodOut" in2="SourceGraphic" result="compOut"/><feBlend in="compOut" in2="SourceGraphic"/></filter></defs><g filter="url(#a)"><path fill-rule="evenodd" d="M18.66 15.02a9.951 9.951 0 01-3.64 3.64c-1.532.894-3.205 1.341-5.02 1.341-1.814 0-3.488-.447-5.02-1.341a9.951 9.951 0 01-3.64-3.64C.446 13.488-.001 11.814-.001 10c0-1.814.447-3.488 1.341-5.02a9.951 9.951 0 013.64-3.64C6.512.446 8.186-.001 10-.001c1.815 0 3.488.447 5.021 1.341a9.949 9.949 0 013.639 3.64c.894 1.532 1.341 3.205 1.341 5.02 0 1.814-.447 3.488-1.341 5.02zm-2.526-8.575a7.057 7.057 0 00-2.579-2.579A6.92 6.92 0 0010 2.916a6.92 6.92 0 00-3.555.95 7.054 7.054 0 00-2.578 2.579A6.921 6.921 0 002.916 10c0 1.285.317 2.47.951 3.555a7.061 7.061 0 002.578 2.579 6.93 6.93 0 003.555.95 6.93 6.93 0 003.555-.95 7.064 7.064 0 002.579-2.579 6.92 6.92 0 00.95-3.555 6.92 6.92 0 00-.95-3.555zm-4.884 5.222H7.083a.41.41 0 01-.3-.117.408.408 0 01-.117-.3v-.833c0-.122.039-.222.117-.3a.408.408 0 01.3-.117H10V5.416c0-.122.039-.222.117-.3a.406.406 0 01.3-.117h.833c.122 0 .222.039.3.117a.408.408 0 01.117.3v5.834a.408.408 0 01-.117.3.406.406 0 01-.3.117z"/></g></svg>